<svg xmlns="http://www.w3.org/2000/svg" width="138.65" height="180.71" viewBox="0 0 138.65 180.71">
  <g id="air-outlet-head" transform="translate(-51.657 -4.798)">
    <path id="Pfad_1" data-name="Pfad 1" d="M156.147,70.694a7.5,7.5,0,0,0-10.062,3.354l-23.079,46.157H98.021a7.5,7.5,0,0,0-6.708,4.146l-25.151,50.3a7.5,7.5,0,1,0,13.416,6.708L102.657,135.2h24.985a7.5,7.5,0,0,0,6.708-4.146l25.151-50.3A7.5,7.5,0,0,0,156.147,70.694Z" fill="#ef7d25"/>
    <path id="Pfad_2" data-name="Pfad 2" d="M165.264,4.8a25.044,25.044,0,1,0,25.043,25.044A25.044,25.044,0,0,0,165.264,4.8Zm0,35.087a10.043,10.043,0,1,1,10.043-10.043A10.055,10.055,0,0,1,165.264,39.885Z" fill="#ef7d25"/>
    <path id="Pfad_3" data-name="Pfad 3" d="M59.157,37.342H78.426V39.7a7.5,7.5,0,0,0,10.093,7.038l26.768-9.861a7.5,7.5,0,0,0,0-14.076L88.519,12.941a7.5,7.5,0,0,0-10.092,7.037v2.363H59.157a7.5,7.5,0,0,0,0,15Z" fill="#ef7d25"/>
  </g>
</svg>
