<svg xmlns="http://www.w3.org/2000/svg" width="190.307" height="180.71" viewBox="0 0 190.307 180.71">
  <g id="air-outlet" transform="translate(0 -4.798)">
    <path id="Pfad_1" data-name="Pfad 1" d="M156.147,70.694a7.5,7.5,0,0,0-10.062,3.354l-23.079,46.157H98.021a7.5,7.5,0,0,0-6.708,4.146l-25.151,50.3a7.5,7.5,0,1,0,13.416,6.708L102.657,135.2h24.985a7.5,7.5,0,0,0,6.708-4.146l25.151-50.3A7.5,7.5,0,0,0,156.147,70.694Z" fill="#ef7d25"/>
    <path id="Pfad_2" data-name="Pfad 2" d="M165.264,4.8a25.044,25.044,0,1,0,25.043,25.044A25.044,25.044,0,0,0,165.264,4.8Zm0,35.087a10.043,10.043,0,1,1,10.043-10.043A10.055,10.055,0,0,1,165.264,39.885Z" fill="#ef7d25"/>
    <path id="Pfad_4" data-name="Pfad 4" d="M61.73,126.094,41.1,107.036a7.5,7.5,0,0,0-12.018,2.639l-.9,2.183-17.8-7.374a7.5,7.5,0,1,0-5.74,13.858l17.8,7.374-.9,2.182a7.5,7.5,0,0,0,6.632,10.364l28.5,1.134q.15.006.3.006h.023a7.5,7.5,0,0,0,4.739-13.308Z" fill="#ef7d25"/>
    <path id="windshield-defrost" d="M93.743,73.078a2.46,2.46,0,0,0,0-3.479,65.777,65.777,0,0,0-93.025,0,2.46,2.46,0,0,0,0,3.479L29.172,101.53a2.45,2.45,0,0,0,.784.525,11.118,11.118,0,0,0,4.185,9.111,2.46,2.46,0,1,0,3.244-3.7c-2.755-2.418-2.948-4.865-2.022-8.218A20.452,20.452,0,0,1,46.981,95.5c-1.738,4.943-2.948,10.674,2.748,15.67a2.46,2.46,0,1,0,3.244-3.7c-3.564-3.126-2.842-6.3-.958-11.418a20.442,20.442,0,0,1,9.191,4.905,11.165,11.165,0,0,0,4.108,10.211,2.46,2.46,0,0,0,3.245-3.7,6.553,6.553,0,0,1-2.34-6.868ZM53.662,91.385c1.118-3.726,1.559-7.777-1.15-11.563l1.789-1.5a1.64,1.64,0,0,0-.239-2.68L42.03,68.756a1.64,1.64,0,0,0-2.358,1.979L44.362,83.78a1.64,1.64,0,0,0,2.6.7L48.722,83c1.349,2.159,1.042,4.506.023,7.616-.5-.029-1.006-.049-1.513-.049a25.512,25.512,0,0,0-9.472,1.811c1.329-3.992,2.119-8.433-.834-12.559l1.788-1.5a1.64,1.64,0,0,0-.239-2.68L26.442,68.756a1.64,1.64,0,0,0-2.358,1.979L28.775,83.78a1.64,1.64,0,0,0,2.6.7L33.134,83c1.73,2.768.738,5.844-.987,10.441-.343.915-.7,1.867-1.024,2.847-.042.033-.086.066-.128.1L5.972,71.373a60.861,60.861,0,0,1,82.518,0L69.55,90.313c.875-3.422,1-7.065-1.449-10.49l1.789-1.5a1.64,1.64,0,0,0-.239-2.68L57.617,68.758a1.64,1.64,0,0,0-2.358,1.979L59.95,83.782a1.64,1.64,0,0,0,2.6.7L64.31,83c1.73,2.768.738,5.845-.987,10.442-.267.712-.543,1.448-.8,2.2a25.257,25.257,0,0,0-8.856-4.262Z" transform="translate(32.003 -25.867)" fill="#ef7d25"/>
  </g>
</svg>
