<svg xmlns="http://www.w3.org/2000/svg" width="190.307" height="180.71" viewBox="0 0 190.307 180.71">
  <g id="air-outlet" transform="translate(0 -4.798)">
    <path id="Pfad_1" data-name="Pfad 1" d="M156.147,70.694a7.5,7.5,0,0,0-10.062,3.354l-23.079,46.157H98.021a7.5,7.5,0,0,0-6.708,4.146l-25.151,50.3a7.5,7.5,0,1,0,13.416,6.708L102.657,135.2h24.985a7.5,7.5,0,0,0,6.708-4.146l25.151-50.3A7.5,7.5,0,0,0,156.147,70.694Z" fill="#ef7d25"/>
    <path id="Pfad_2" data-name="Pfad 2" d="M165.264,4.8a25.044,25.044,0,1,0,25.043,25.044A25.044,25.044,0,0,0,165.264,4.8Zm0,35.087a10.043,10.043,0,1,1,10.043-10.043A10.055,10.055,0,0,1,165.264,39.885Z" fill="#ef7d25"/>
    <path id="Pfad_3" data-name="Pfad 3" d="M59.157,37.342H78.426V39.7a7.5,7.5,0,0,0,10.093,7.038l26.768-9.861a7.5,7.5,0,0,0,0-14.076L88.519,12.941a7.5,7.5,0,0,0-10.092,7.037v2.363H59.157a7.5,7.5,0,0,0,0,15Z" fill="#ef7d25"/>
    <path id="Pfad_4" data-name="Pfad 4" d="M61.73,126.094,41.1,107.036a7.5,7.5,0,0,0-12.018,2.639l-.9,2.183-17.8-7.374a7.5,7.5,0,1,0-5.74,13.858l17.8,7.374-.9,2.182a7.5,7.5,0,0,0,6.632,10.364l28.5,1.134q.15.006.3.006h.023a7.5,7.5,0,0,0,4.739-13.308Z" fill="#ef7d25"/>
  </g>
</svg>
