<svg id="co-driver-heat" xmlns="http://www.w3.org/2000/svg" width="512" height="512" viewBox="0 0 512 512">
  <g id="Gruppe_1" data-name="Gruppe 1">
    <path id="Pfad_1" data-name="Pfad 1" d="M45,0H87a45.051,45.051,0,0,1,45,45V87a44.786,44.786,0,0,1-10.138,28.416,57.76,57.76,0,0,1,17.906,26.514l73.25,207.858,51.579-3.813a53.865,53.865,0,0,0-10.5-58.916L237,304.154V249h55.154l-16.847,16.847a83.8,83.8,0,0,1,21.567,77.743l46.894-3.466a53.832,53.832,0,0,0-12.674-53.064L314,304.154V249h55.154l-16.847,16.847a83.717,83.717,0,0,1,22.7,71.968l47.184-3.488a53.77,53.77,0,0,0-14.1-47.267L391,304.154V249h55.154l-16.847,16.847a83.652,83.652,0,0,1,23.356,67.067A64.951,64.951,0,0,1,512,397.644V512H83.216L29.342,176.374a57.128,57.128,0,0,1,5.409-45.566A45.068,45.068,0,0,1,0,87V45A45.051,45.051,0,0,1,45,0ZM58.265,168.361l.349,1.086L108.784,482H482V397.644A34.984,34.984,0,0,0,443.8,362.8a83.482,83.482,0,0,1-15.2,20.807,54.043,54.043,0,0,0,.075,76.43L407.468,481.25a84.038,84.038,0,0,1-3.224-115.521l-40.84,3.02a83.69,83.69,0,0,1-11.8,14.858,54.043,54.043,0,0,0,.075,76.43L330.468,481.25a84.092,84.092,0,0,1-8.193-109.459l-39.988,2.957a83.969,83.969,0,0,1-7.681,8.859,54.043,54.043,0,0,0,.075,76.43L253.467,481.25a84.1,84.1,0,0,1-12.238-103.466L192.35,381.4,111.41,151.717l-.133-.4a27.842,27.842,0,1,0-53.012,17.04ZM30,87a15.017,15.017,0,0,0,15,15H87a15.017,15.017,0,0,0,15-15V45A15.017,15.017,0,0,0,87,30H45A15.017,15.017,0,0,0,30,45Z" fill="#ef7d25"/>
  </g>
</svg>
