<svg xmlns="http://www.w3.org/2000/svg" width="188.255" height="164.798" viewBox="0 0 188.255 164.798">
  <g id="hazard" transform="translate(0 -13.252)">
    <path id="Pfad_1" data-name="Pfad 1" d="M187.123,167.7,99.867,16.571a6.637,6.637,0,0,0-11.5,0L.889,168.094a6.638,6.638,0,0,0,5.748,9.956H181.617a6.64,6.64,0,0,0,5.506-10.348ZM18.134,164.775,94.118,33.165,170.1,164.775Z" transform="translate(0 0)" fill="red"/>
    <path id="Pfad_2" data-name="Pfad 2" d="M93.344,66.624,44.135,151.854a6.638,6.638,0,0,0,5.748,9.956h98.433a6.639,6.639,0,0,0,5.506-10.348L104.84,66.624a6.637,6.637,0,0,0-11.5,0ZM136.8,148.536H61.38L99.091,83.217Z" transform="translate(-4.973 -5.756)" fill="red"/>
  </g>
</svg>
