<svg id="heat" xmlns="http://www.w3.org/2000/svg" width="512" height="512" viewBox="0 0 512 512">
  <g id="Gruppe_1" data-name="Gruppe 1">
    <path id="Pfad_1" data-name="Pfad 1" d="M467,0H425a45.051,45.051,0,0,0-45,45V87a44.786,44.786,0,0,0,10.138,28.416,57.76,57.76,0,0,0-17.906,26.514l-73.25,207.858L247.4,345.975a53.865,53.865,0,0,1,10.5-58.916L275,304.154V249H219.846l16.847,16.847a83.8,83.8,0,0,0-21.567,77.743l-46.894-3.466a53.832,53.832,0,0,1,12.674-53.064L198,304.154V249H142.846l16.847,16.847a83.717,83.717,0,0,0-22.7,71.968l-47.184-3.488a53.77,53.77,0,0,1,14.1-47.267L121,304.154V249H65.846l16.847,16.847a83.652,83.652,0,0,0-23.356,67.067A64.951,64.951,0,0,0,0,397.644V512H428.784l53.874-335.626a57.128,57.128,0,0,0-5.409-45.566A45.068,45.068,0,0,0,512,87V45A45.051,45.051,0,0,0,467,0ZM453.735,168.361l-.349,1.086L403.216,482H30V397.644A34.984,34.984,0,0,1,68.2,362.8a83.482,83.482,0,0,0,15.2,20.807,54.043,54.043,0,0,1-.075,76.43l21.214,21.213a84.038,84.038,0,0,0,3.224-115.521l40.84,3.02a83.691,83.691,0,0,0,11.8,14.858,54.043,54.043,0,0,1-.075,76.43l21.214,21.213a84.092,84.092,0,0,0,8.193-109.459l39.988,2.957a83.969,83.969,0,0,0,7.681,8.859,54.043,54.043,0,0,1-.075,76.43l21.214,21.213a84.1,84.1,0,0,0,12.238-103.466L319.65,381.4l80.94-229.681.133-.4a27.842,27.842,0,1,1,53.012,17.04ZM482,87a15.017,15.017,0,0,1-15,15H425a15.017,15.017,0,0,1-15-15V45a15.017,15.017,0,0,1,15-15h42a15.017,15.017,0,0,1,15,15Z" fill="#ef7d25"/>
  </g>
</svg>
