<svg xmlns="http://www.w3.org/2000/svg" width="233.392" height="213.531" viewBox="0 0 233.392 213.531">
  <path id="rear-window-defrost" d="M225.893,9.932H7.5a7.5,7.5,0,0,0-7.5,7.5V158.775a7.5,7.5,0,0,0,7.5,7.5H54.3c-5.942,17.736-9.157,37.867,10.742,55.324a7.5,7.5,0,0,0,9.893-11.276c-14.063-12.336-11.571-25.155-4.728-44.047H113.7c-5.943,17.737-9.157,37.867,10.742,55.324a7.5,7.5,0,0,0,9.893-11.276c-14.064-12.336-11.571-25.155-4.728-44.047h43.5c-5.943,17.737-9.157,37.867,10.743,55.324a7.5,7.5,0,1,0,9.891-11.276c-14.064-12.336-11.571-25.155-4.728-44.047h36.878a7.5,7.5,0,0,0,7.5-7.5V17.432A7.5,7.5,0,0,0,225.893,9.932Zm-7.5,141.343h-23.92c5.075-15.143,8.157-32.032-3.435-47.51l8.2-6.882a5,5,0,0,0-.73-8.17L152.654,62.478a5,5,0,0,0-7.188,6.032l17.874,49.713a5,5,0,0,0,7.919,2.138l8.264-6.934c7.433,10.551,4.753,22.085-.957,37.848h-43.5c5.076-15.143,8.158-32.032-3.434-47.511l8.2-6.881a5,5,0,0,0-.73-8.17L93.252,62.478a5,5,0,0,0-7.188,6.031l17.873,49.713a5,5,0,0,0,7.919,2.139l8.265-6.934c7.433,10.55,4.753,22.085-.958,37.848h-43.5c5.075-15.143,8.157-32.032-3.435-47.511l8.2-6.881a5,5,0,0,0-.73-8.17L33.851,62.478a5,5,0,0,0-7.188,6.031l17.873,49.713a5,5,0,0,0,7.919,2.139l8.264-6.934c7.433,10.551,4.753,22.085-.957,37.848H15V24.932H218.393Z" transform="translate(0 -9.932)" fill="#ef7d25"/>
</svg>
