<svg xmlns="http://www.w3.org/2000/svg" width="301.79" height="148.659" viewBox="0 0 301.79 148.659">
  <g id="recirculation" transform="translate(0 -76.565)">
    <path id="Pfad_1" data-name="Pfad 1" d="M294.289,125.008h-44.9L232.516,81.36a7.5,7.5,0,0,0-6.995-4.795h-118a7.5,7.5,0,0,0-6.44,3.656L74.347,125.008H16.867A7.5,7.5,0,0,0,9.45,131.4L.082,194.114A7.5,7.5,0,0,0,7.5,202.722H35.21a38.638,38.638,0,0,0,70.215,0h96.442a38.63,38.63,0,0,0,70.205,0H294.29a7.5,7.5,0,0,0,7.5-7.5V132.508A7.5,7.5,0,0,0,294.289,125.008Zm-7.5,62.714h-19.9a7.5,7.5,0,0,0-7.206,5.422,23.638,23.638,0,0,1-45.421,0,7.5,7.5,0,0,0-7.206-5.421H100.238a7.5,7.5,0,0,0-7.207,5.422,23.644,23.644,0,0,1-45.43,0,7.5,7.5,0,0,0-7.206-5.42H16.2l7.126-47.714H78.605a7.5,7.5,0,0,0,6.44-3.656l26.732-44.787h108.6l16.878,43.648a7.5,7.5,0,0,0,6.995,4.795h42.536Z" fill="#ef7d25"/>
    <path id="Pfad_2" data-name="Pfad 2" d="M210.1,151.179l-28.5-10.5a7.5,7.5,0,0,0-10.093,7.038v3H135.783V128.871h51.462a7.5,7.5,0,0,0,0-15H128.283a7.5,7.5,0,0,0-7.5,7.5v36.846a7.5,7.5,0,0,0,7.5,7.5h43.224v3a7.5,7.5,0,0,0,10.093,7.038l28.5-10.5a7.5,7.5,0,0,0,0-14.077Z" fill="#ef7d25"/>
  </g>
</svg>
