<svg xmlns="http://www.w3.org/2000/svg" width="105.656" height="204.619" viewBox="0 0 105.656 204.619">
  <g id="seatbelt" transform="translate(-49.482)">
    <path id="Pfad_4" data-name="Pfad 4" d="M102.228,49.831A24.916,24.916,0,1,0,77.314,24.917,24.942,24.942,0,0,0,102.228,49.831Zm0-34.831a9.916,9.916,0,1,1-9.914,9.917A9.927,9.927,0,0,1,102.228,15Z" fill="red"/>
    <path id="Pfad_5" data-name="Pfad 5" d="M147.616,123.845H135.489V81.658a24.249,24.249,0,0,0-5.581-15.5L153.05,42.035a7.5,7.5,0,0,0-10.825-10.384L116.943,58a24.317,24.317,0,0,0-5.812-.706H93.466A24.385,24.385,0,0,0,69.109,81.657v26.212L51.57,126.152a7.5,7.5,0,0,0,5.412,12.692h90.635a7.5,7.5,0,1,0,0-15ZM120.489,81.658v42.187H84.108V113.9l35.233-36.728A9.3,9.3,0,0,1,120.489,81.658Zm-36.381,0A9.368,9.368,0,0,1,93.465,72.3h9.766L84.108,92.234Z" fill="red"/>
    <path id="Pfad_6" data-name="Pfad 6" d="M70.4,148.109a7.5,7.5,0,0,0-7.5,7.5v41.51a7.5,7.5,0,0,0,15,0v-41.51A7.5,7.5,0,0,0,70.4,148.109Z" fill="red"/>
    <path id="Pfad_7" data-name="Pfad 7" d="M134.239,148.109a7.5,7.5,0,0,0-7.5,7.5v41.51a7.5,7.5,0,1,0,15,0v-41.51A7.5,7.5,0,0,0,134.239,148.109Z" fill="red"/>
  </g>
</svg>
