<svg xmlns="http://www.w3.org/2000/svg" width="287.991" height="187.326" viewBox="0 0 287.991 187.326">
  <path id="windshield-defrost" d="M285.794,119.675a7.5,7.5,0,0,0,0-10.606,200.532,200.532,0,0,0-283.6,0,7.5,7.5,0,0,0,0,10.606L88.94,206.416a7.467,7.467,0,0,0,2.39,1.6c-.28,9.409,2.716,18.966,12.758,27.775a7.5,7.5,0,1,0,9.891-11.276c-8.4-7.372-8.988-14.832-6.165-25.053a62.352,62.352,0,0,1,35.418-11.443c-5.3,15.069-8.987,32.54,8.378,47.772A7.5,7.5,0,1,0,161.5,224.52c-10.866-9.531-8.665-19.206-2.921-34.809A62.322,62.322,0,0,1,186.6,204.666c-1.128,10.476,1.287,21.272,12.525,31.131a7.5,7.5,0,0,0,9.893-11.276c-7.236-6.347-8.675-12.757-7.135-20.938ZM163.6,175.489c3.408-11.358,4.753-23.71-3.505-35.252l5.453-4.576a5,5,0,0,0-.73-8.169L128.138,106.5a5,5,0,0,0-7.188,6.032l14.3,39.771a5,5,0,0,0,7.919,2.138l5.371-4.507c4.113,6.581,3.177,13.738.07,23.218-1.531-.089-3.066-.15-4.612-.15a77.776,77.776,0,0,0-28.878,5.52c4.051-12.169,6.459-25.709-2.542-38.289l5.452-4.575a5,5,0,0,0-.73-8.17L80.617,106.5a5,5,0,0,0-7.188,6.032l14.3,39.771a5,5,0,0,0,7.919,2.138l5.371-4.507c5.273,8.438,2.25,17.817-3.01,31.832-1.046,2.788-2.133,5.693-3.123,8.679-.128.1-.262.2-.39.309L18.212,114.477a185.544,185.544,0,0,1,251.568,0l-57.742,57.742c2.669-10.433,3.056-21.538-4.417-31.98l5.453-4.576a5,5,0,0,0-.73-8.169L175.66,106.506a5,5,0,0,0-7.188,6.032l14.3,39.771a5,5,0,0,0,7.919,2.138l5.372-4.507c5.274,8.438,2.25,17.818-3.01,31.833-.814,2.171-1.654,4.414-2.454,6.71A77,77,0,0,0,163.6,175.489Z" transform="translate(0 -50.333)" fill="#ef7d25"/>
</svg>
