<?xml version="1.0" encoding="utf-8"?>
<!-- Generator: Adobe Illustrator 23.1.0, SVG Export Plug-In . SVG Version: 6.00 Build 0)  -->
<svg version="1.1" id="Layer_1" xmlns="http://www.w3.org/2000/svg" xmlns:xlink="http://www.w3.org/1999/xlink" x="0px" y="0px"
	 viewBox="0 0 271 210" style="enable-background:new 0 0 271 210;" xml:space="preserve">
<style type="text/css">
	.st0{fill:#CC0000;}
</style>
<title>brake-system-warning</title>
<g>
	<g id="Capa_1">
		<g>
			<image style="overflow:visible;opacity:0.75;enable-background:new    ;" width="271" height="210" xlink:href="4743A84D.png" >
			</image>
			<g>
				<path class="st0" d="M135.2,15.3c-47.8,0-86.5,38.7-86.5,86.5s38.7,86.5,86.5,86.5s86.5-38.7,86.5-86.5l0,0
					C221.7,54,183,15.3,135.2,15.3z M135.2,173.3c-39.5,0-71.5-32-71.5-71.5s32-71.5,71.5-71.5s71.5,32,71.5,71.5c0,0,0,0,0,0
					C206.7,141.3,174.7,173.3,135.2,173.3L135.2,173.3z"/>
				<path class="st0" d="M62.9,29.5c2.9-2.9,2.9-7.7,0-10.6s-7.7-2.9-10.6,0c-45.7,45.8-45.7,120,0,165.8c2.9,2.9,7.7,2.9,10.6,0
					s2.9-7.7,0-10.6C23,134.1,23,69.4,62.9,29.5z"/>
				<path class="st0" d="M218.1,18.9c-2.9-2.9-7.7-2.9-10.6,0s-2.9,7.7,0,10.6c39.9,40,39.9,104.7,0,144.6c-2.9,2.9-2.9,7.7,0,10.6
					s7.7,2.9,10.6,0C263.8,138.9,263.8,64.7,218.1,18.9z"/>
				<path class="st0" d="M135.2,124.8c4.1,0,7.5-3.4,7.5-7.5V53.4c0-4.1-3.4-7.5-7.5-7.5s-7.5,3.4-7.5,7.5v63.9
					C127.7,121.4,131.1,124.8,135.2,124.8z"/>
				<circle class="st0" cx="135.2" cy="140.9" r="9.3"/>
			</g>
		</g>
	</g>
</g>
</svg>
