<?xml version="1.0" encoding="utf-8"?>
<!-- Generator: Adobe Illustrator 24.0.1, SVG Export Plug-In . SVG Version: 6.00 Build 0)  -->
<svg version="1.1" id="Capa_1" xmlns="http://www.w3.org/2000/svg" xmlns:xlink="http://www.w3.org/1999/xlink" x="0px" y="0px"
	 viewBox="0 0 191.9 191.9" style="enable-background:new 0 0 191.9 191.9;" xml:space="preserve">
<style type="text/css">
	.st0{fill:#EF7D25;}
</style>
<g>
	
		<image style="overflow:visible;opacity:0.15;" width="228" height="202" xlink:href="6F91FB34.png"  transform="matrix(1 0 0 1 -18 -2.149)">
	</image>
	<g>
		<g>
			<path class="st0" d="M188.1,147.3c-3.6-2.1-8.2-0.8-10.2,2.7c-4.7,8.2-13.5,13.3-23,13.3c-9.4,0-18.2-5.1-23-13.3
				c-1.3-2.3-3.8-3.7-6.5-3.7c-2.7,0-5.2,1.4-6.5,3.7c-4.7,8.2-13.5,13.3-23,13.3c-9.4,0-18.2-5.1-23-13.3c-1.3-2.3-3.8-3.7-6.5-3.7
				c-2.7,0-5.2,1.4-6.5,3.7c-4.7,8.2-13.5,13.3-23,13.3c-9.4,0-18.2-5.1-23-13.3c-2.1-3.6-6.7-4.8-10.2-2.7
				c-3.6,2.1-4.8,6.7-2.7,10.2c7.4,12.8,21.2,20.8,36,20.8c11.2,0,21.8-4.5,29.5-12.3c7.7,7.8,18.3,12.3,29.5,12.3
				c11.2,0,21.8-4.5,29.5-12.3c7.7,7.7,18.3,12.3,29.5,12.3c14.8,0,28.6-8,36-20.8C192.9,154,191.7,149.4,188.1,147.3z"/>
			<path class="st0" d="M131.9,115.3c-2.1-3.6-6.7-4.8-10.2-2.7c-3.6,2.1-4.8,6.7-2.7,10.2c7.4,12.8,21.2,20.8,36,20.8
				c14.8,0,28.6-8,36-20.8c2.1-3.6,0.8-8.2-2.7-10.2s-8.2-0.8-10.2,2.7c-4.7,8.2-13.5,13.3-23,13.3
				C145.4,128.6,136.6,123.5,131.9,115.3z"/>
			<path class="st0" d="M37,143.6c14.8,0,28.6-8,36-20.8c2.1-3.6,0.8-8.2-2.7-10.2c-3.6-2.1-8.2-0.8-10.2,2.7
				c-4.7,8.2-13.5,13.3-23,13.3c-9.4,0-18.2-5.1-23-13.3c-2.1-3.6-6.7-4.8-10.2-2.7c-3.6,2.1-4.8,6.7-2.7,10.2
				C8.4,135.7,22.2,143.6,37,143.6z"/>
			<path class="st0" d="M96.1,155c11,0,19.9-8.9,19.9-19.9c0-8.3-5.1-15.5-12.4-18.4v-15.6h25.5c4.1,0,7.5-3.4,7.5-7.5
				s-3.4-7.5-7.5-7.5h-25.5V73.4h25.5c4.1,0,7.5-3.4,7.5-7.5s-3.4-7.5-7.5-7.5h-25.5V45.6h25.5c4.1,0,7.5-3.4,7.5-7.5
				s-3.4-7.5-7.5-7.5h-25.5V21c0-4.1-3.4-7.5-7.5-7.5s-7.5,3.4-7.5,7.5v95.7c-7.3,3-12.4,10.1-12.4,18.4
				C76.2,146.1,85.1,155,96.1,155z"/>
		</g>
	</g>
</g>
</svg>
