<?xml version="1.0" encoding="utf-8"?>
<!-- Generator: Adobe Illustrator 23.1.0, SVG Export Plug-In . SVG Version: 6.00 Build 0)  -->
<svg version="1.1" id="Layer_1" xmlns="http://www.w3.org/2000/svg" xmlns:xlink="http://www.w3.org/1999/xlink" x="0px" y="0px"
	 viewBox="0 0 248 187" style="enable-background:new 0 0 248 187;" xml:space="preserve">
<style type="text/css">
	.st0{fill:#33FF66;}
</style>
<title>fog-light</title>
<g>
	<g id="Capa_1">
		<g>
			<image style="overflow:visible;opacity:0.75;enable-background:new    ;" width="248" height="187" xlink:href="25B08C7E.png" >
			</image>
			<g>
				<path class="st0" d="M200.3,34.4c-16.5-12.1-37-19.3-54.9-19.3s-31.3,7.3-39.6,21.6c-6.5,11.2-9.6,26.5-9.6,46.8
					s3.1,35.5,9.6,46.8c8.2,14.3,21.6,21.6,39.6,21.6s38.4-7.3,54.9-19.3c18.7-13.7,29.1-31.2,29.1-49.1S219.1,48.1,200.3,34.4z
					 M191.5,120.5c-13.8,10.1-31.4,16.4-46,16.4c-15.9,0-34.2-6.1-34.2-53.4s18.3-53.4,34.2-53.4c14.6,0,32.2,6.3,46,16.4
					c14.5,10.7,22.9,24.2,22.9,37S206,109.8,191.5,120.5z"/>
				<path class="st0" d="M88.8,46.9c-1.9-3.7-6.4-5.2-10.1-3.4l-19.6,9.8c2.7-7.2,5.5-14.7,5.2-22.6c-0.1-4.1-3.6-7.4-7.8-7.2
					c-4.1,0.1-7.4,3.6-7.2,7.8c0.2,5-2,10.9-4.4,17.1c-1.9,4.6-3.4,9.4-4.5,14.3l-18.3,9.2c-3.7,1.9-5.2,6.4-3.4,10.1
					c1.9,3.7,6.4,5.2,10.1,3.4L41,79.1c1.8,5.1,4.9,9.7,9.1,13.2l0.2,0.2l-28.2,14.1c-3.7,1.9-5.2,6.4-3.4,10.1
					c1.3,2.5,3.9,4.2,6.7,4.1c1.2,0,2.3-0.3,3.4-0.8l26.4-13.2c-0.6,3.6-2.1,7.8-4,12.9c-1,2.7-2.1,5.5-3,8.5l-26,13
					c-3.8,1.5-5.7,5.9-4.2,9.7c1.5,3.8,5.9,5.7,9.7,4.2c0.4-0.2,0.7-0.3,1.1-0.5l17.4-8.7c0.9,6,3.8,12,10.2,17.6
					c3,2.8,7.8,2.6,10.6-0.4c2.8-3,2.6-7.8-0.4-10.6c-0.1-0.1-0.2-0.2-0.3-0.3c-4.8-4.2-6-8.4-5.2-13.8l24.3-12.2
					c3.7-1.9,5.2-6.4,3.4-10.1c-1.9-3.7-6.4-5.2-10.1-3.4l-11.2,5.6c2-6,3.6-12.6,2.7-19.3l15.1-7.6c3.7-1.8,5.3-6.3,3.4-10
					c-1.8-3.7-6.3-5.3-10-3.4c0,0-0.1,0-0.1,0.1l-14.4,7.2c-1.3-1.6-2.7-3.1-4.3-4.4c-3.2-2.8-4.8-5.6-5.3-8.7l30.6-15.3
					C89.1,55.1,90.6,50.6,88.8,46.9C88.8,46.9,88.8,46.9,88.8,46.9z"/>
			</g>
		</g>
	</g>
</g>
</svg>
