<?xml version="1.0" encoding="utf-8"?>
<!-- Generator: Adobe Illustrator 24.0.1, SVG Export Plug-In . SVG Version: 6.00 Build 0)  -->
<svg version="1.1" id="Capa_1" xmlns="http://www.w3.org/2000/svg" xmlns:xlink="http://www.w3.org/1999/xlink" x="0px" y="0px"
	 viewBox="0 0 229.4 229.4" style="enable-background:new 0 0 229.4 229.4;" xml:space="preserve">
<style type="text/css">
	.st0{fill:#EF7D25;}
</style>
<g>
	
		<image style="overflow:visible;opacity:0.15;" width="266" height="223" xlink:href="67F01A13.png"  transform="matrix(1 0 0 1 -18 6.449)">
	</image>
	<g>
		<g>
			<path class="st0" d="M227.3,74.3l-35.2-35.2c-2.9-2.9-7.7-2.9-10.6,0s-2.9,7.7,0,10.6l22,22v84.5c0,7.3-6,13.3-13.3,13.3
				s-13.3-6-13.3-13.3v-20.7c0-13-8.8-24-20.8-27.3V63.1V49.5c0-15.5-12.6-28-28-28H76.8c-15.5,0-28,12.6-28,28v13.6v50.8V193H39
				c-4.1,0-7.5,3.4-7.5,7.5s3.4,7.5,7.5,7.5h126.9c4.1,0,7.5-3.4,7.5-7.5s-3.4-7.5-7.5-7.5h-9.8v-68.4c3.5,2.4,5.8,6.4,5.8,11v20.7
				c0,15.6,12.7,28.3,28.3,28.3c15.6,0,28.3-12.7,28.3-28.3V86.3c1.1,0.6,2.3,0.9,3.5,0.9c1.9,0,3.8-0.7,5.3-2.2
				C230.2,82,230.2,77.2,227.3,74.3z M63.8,70.6h77.3v35.8H63.8V70.6z M76.8,36.5H128c7.2,0,13,5.8,13,13v6.1H63.8v-6.1
				C63.8,42.3,69.6,36.5,76.8,36.5z M63.8,193v-71.6h77.3V193H63.8z"/>
			<path class="st0" d="M36.5,136c0-0.2,0-0.4,0-0.6l0-42.4c0-3-1.8-5.8-4.6-6.9c-2.8-1.2-6-0.5-8.2,1.6L2.2,109.2
				c-1.4,1.4-2.2,3.3-2.2,5.3c0,2,0.8,3.9,2.2,5.3l21.5,21.5c1.4,1.4,3.4,2.2,5.3,2.2c0,0,0.1,0,0.1,0
				C33.2,143.4,36.5,140.1,36.5,136z"/>
		</g>
	</g>
</g>
</svg>
