<?xml version="1.0" encoding="utf-8"?>
<!-- Generator: Adobe Illustrator 23.1.0, SVG Export Plug-In . SVG Version: 6.00 Build 0)  -->
<svg version="1.1" id="Layer_1" xmlns="http://www.w3.org/2000/svg" xmlns:xlink="http://www.w3.org/1999/xlink" x="0px" y="0px"
	 viewBox="0 0 248 174" style="enable-background:new 0 0 248 174;" xml:space="preserve">
<style type="text/css">
	.st0{fill:#0099FF;}
</style>
<title>high-beam</title>
<g>
	<g id="Capa_1">
		<g>
			<image style="overflow:visible;opacity:0.75;enable-background:new    ;" width="248" height="174" xlink:href="6D03608B.png" >
			</image>
			<g>
				<path class="st0" d="M200.3,35.2c-16.5-12.1-37-19.3-54.9-19.3s-31.3,7.3-39.6,21.6c-6.5,11.2-9.6,26.5-9.6,46.8
					s3.1,35.6,9.6,46.8c8.2,14.3,21.6,21.6,39.6,21.6s38.4-7.2,54.9-19.3c18.8-13.7,29.1-31.2,29.1-49.1S219.1,48.9,200.3,35.2z
					 M191.5,121.3c-13.8,10.1-31.4,16.4-46,16.4c-15.9,0-34.2-6.1-34.2-53.4s18.3-53.3,34.2-53.3c14.6,0,32.3,6.3,46,16.4
					c14.6,10.7,22.9,24.2,22.9,37S206,110.6,191.5,121.3z"/>
				<path class="st0" d="M82.1,23.5H25.5c-4.1,0-7.5,3.4-7.5,7.5s3.4,7.5,7.5,7.5h56.6c4.1,0,7.5-3.4,7.5-7.5S86.2,23.5,82.1,23.5z"
					/>
				<path class="st0" d="M82.1,50.9H25.5c-4.1,0-7.5,3.4-7.5,7.5s3.4,7.5,7.5,7.5h56.6c4.1,0,7.5-3.4,7.5-7.5S86.2,50.9,82.1,50.9z"
					/>
				<path class="st0" d="M82.1,78.3H25.5c-4.1,0-7.5,3.4-7.5,7.5s3.4,7.5,7.5,7.5h56.6c4.1,0,7.5-3.4,7.5-7.5S86.2,78.3,82.1,78.3z"
					/>
				<path class="st0" d="M82.1,105.6H25.5c-4.1,0-7.5,3.4-7.5,7.5s3.4,7.5,7.5,7.5h56.6c4.1,0,7.5-3.4,7.5-7.5
					S86.2,105.6,82.1,105.6z"/>
				<path class="st0" d="M82.1,133H25.5c-4.1,0-7.5,3.4-7.5,7.5s3.4,7.5,7.5,7.5h56.6c4.1,0,7.5-3.4,7.5-7.5S86.2,133,82.1,133z"/>
			</g>
		</g>
	</g>
</g>
</svg>
