<?xml version="1.0" encoding="utf-8"?>
<!-- Generator: Adobe Illustrator 23.1.0, SVG Export Plug-In . SVG Version: 6.00 Build 0)  -->
<svg version="1.1" id="Layer_1" xmlns="http://www.w3.org/2000/svg" xmlns:xlink="http://www.w3.org/1999/xlink" x="0px" y="0px"
	 viewBox="0 0 267 209" style="enable-background:new 0 0 267 209;" xml:space="preserve">
<style type="text/css">
	.st0{fill:#FFCC00;}
</style>
<title>malfunction-indicador</title>
<g>
	<g id="Capa_1">
		<g>
			<image style="overflow:visible;opacity:0.75;enable-background:new    ;" width="267" height="209" xlink:href="88184D73.png" >
			</image>
			<path class="st0" d="M248.3,92.9l-11.2-25.3c-1.2-2.7-3.9-4.5-6.9-4.5h-18.5c-4.1,0-7.5,3.4-7.5,7.5l0,0v11.8h-5.8v-9.7
				c0-4.1-3.3-7.5-7.5-7.5c0,0,0,0,0,0h-20V44.7c0-4.1-3.4-7.5-7.5-7.5l0,0h-36.9v-7.1h36.9c4.1,0,7.5-3.4,7.5-7.5s-3.4-7.5-7.5-7.5
				H74.8c-4.1,0-7.5,3.4-7.5,7.5s3.4,7.5,7.5,7.5h36.9v7.1H74.8c-4.1,0-7.5,3.4-7.5,7.5l0,0v6.2H50.8c-4.1,0-7.5,3.4-7.5,7.5l0,0
				v40.3H33V58.4c0-4.1-3.4-7.5-7.5-7.5S18,54.3,18,58.4v95.5c0,4.1,3.4,7.5,7.5,7.5s7.5-3.4,7.5-7.5v-40.3h10.3v40.3
				c0,4.1,3.4,7.5,7.5,7.5l0,0h29.1l29.6,24.8c1.3,1.1,3.1,1.7,4.8,1.8H191c4.1,0,7.5-3.4,7.5-7.5V160h5.8v11.8
				c0,4.1,3.4,7.5,7.5,7.5h18.5c3,0,5.7-1.8,6.9-4.5l11.2-25.3c0.4-0.9,0.6-2,0.6-3V95.9C249,94.8,248.8,93.8,248.3,92.9z
				 M234,144.9l-8.6,19.4h-6.1v-11.8c0-4.1-3.4-7.5-7.5-7.5H191c-4.1,0-7.5,3.4-7.5,7.5V173h-66.4l-29.6-24.8
				c-1.3-1.1-3.1-1.7-4.8-1.8H58.3V65.9h16.5c4.1,0,7.5-3.4,7.5-7.5v-6.2H156v20.5c0,4.1,3.4,7.5,7.5,7.5l0,0h20v9.7
				c0,4.1,3.4,7.5,7.5,7.5l0,0h20.8c4.1,0,7.5-3.4,7.5-7.5l0,0V78.1h6.1l8.6,19.4V144.9z"/>
		</g>
	</g>
</g>
</svg>
