<?xml version="1.0" encoding="utf-8"?>
<!-- Generator: Adobe Illustrator 24.0.1, SVG Export Plug-In . SVG Version: 6.00 Build 0)  -->
<svg version="1.1" id="Capa_1" xmlns="http://www.w3.org/2000/svg" xmlns:xlink="http://www.w3.org/1999/xlink" x="0px" y="0px"
	 viewBox="0 0 295.3 295.3" style="enable-background:new 0 0 295.3 295.3;" xml:space="preserve">
<style type="text/css">
	.st0{fill:#EF7D25;}
</style>
<g>
	
		<image style="overflow:visible;opacity:0.15;" width="332" height="160" xlink:href="7B188BE5.png"  transform="matrix(1 0 0 1 -18 70.327)">
	</image>
	<g>
		<g>
			<path class="st0" d="M271.6,115.7c-1.9-3-5.7-4.2-9-2.9L171,147.9l-17.1-17.1c-1.4-1.4-3.3-2.2-5.3-2.2h-25.6V101h22.6
				c4.1,0,7.5-3.4,7.5-7.5s-3.4-7.5-7.5-7.5H85.5c-4.1,0-7.5,3.4-7.5,7.5s3.4,7.5,7.5,7.5h22.6v27.6H92.4l-68.3-28.3
				c-0.3-0.1-0.6-0.2-0.9-0.3c-3.6-1-7.5,0.8-8.9,4.4L0.6,137.5c0,0,0,0,0,0c-0.4,1-0.6,1.9-0.6,2.9c0,2.9,1.8,5.7,4.6,6.9
				c0,0,0,0,0,0l53.4,22.1v32.3c0,4.1,3.4,7.5,7.5,7.5h117.8c2,0,3.9-0.8,5.3-2.2l82-82C273.1,122.6,273.6,118.7,271.6,115.7z
				 M17.3,136.3l8-19.2l34.5,14.3c-1.1,1.3-1.7,3-1.7,4.8v17.1L17.3,136.3z M180.3,194.3H73.1v-29.3c0-0.3,0-0.6,0-1v-20.3h17.8
				c0,0,0,0,0,0c0,0,0,0,0,0h54.6l18.3,18.3c2.1,2.1,5.2,2.8,8,1.7l63.3-24.2L180.3,194.3z"/>
			<path class="st0" d="M281.3,165.7c0,0-14,20.3-14,28c0,7.7,6.3,14,14,14c7.7,0,14-6.3,14-14C295.3,186,281.3,165.7,281.3,165.7z"
				/>
		</g>
	</g>
</g>
</svg>
